<svg width="23" height="20" viewBox="0 0 23 20" fill="none" xmlns="http://www.w3.org/2000/svg">
<path d="M13.4652 8.28596C13.2689 8.08974 13.0027 7.9795 12.7252 7.9795C12.4476 7.9795 12.1815 8.08974 11.9852 8.28596L11.2452 9.02492C11.0521 9.22486 10.8211 9.38433 10.5657 9.49404C10.3103 9.60376 10.0356 9.6615 9.75762 9.66392C9.47967 9.66634 9.20401 9.61337 8.94675 9.50811C8.68948 9.40286 8.45575 9.24742 8.2592 9.05087C8.06264 8.85431 7.90721 8.62058 7.80195 8.36332C7.69669 8.10605 7.64373 7.8304 7.64614 7.55244C7.64856 7.27448 7.70631 6.99979 7.81602 6.74439C7.92573 6.48899 8.08521 6.258 8.28514 6.0649L14.178 0.169971C15.5731 -0.147356 17.0328 -0.0167593 18.3495 0.543192C19.6661 1.10314 20.7728 2.06394 21.512 3.28898C22.2512 4.51401 22.5854 5.94091 22.467 7.36679C22.3486 8.79267 21.7838 10.1449 20.8527 11.2313L18.6463 13.466L13.4652 8.28491V8.28596ZM1.99353 1.99329C3.07659 0.910371 4.49324 0.224376 6.01443 0.0462175C7.53562 -0.131941 9.07244 0.208149 10.3764 1.0115L6.80409 4.58488C6.03038 5.35705 5.58934 6.4012 5.57521 7.49421C5.56109 8.58722 5.975 9.64241 6.72849 10.4343C7.48199 11.2262 8.51532 11.692 9.60768 11.7322C10.7 11.7724 11.7648 11.3838 12.5745 10.6494L12.7252 10.506L17.1663 14.946L12.7252 19.3871C12.3326 19.7795 11.8003 20 11.2452 20C10.6901 20 10.1577 19.7795 9.76516 19.3871L1.99248 11.6144C0.716711 10.3385 0 8.60814 0 6.80385C0 4.99957 0.716711 3.26917 1.99248 1.99329H1.99353Z" fill="#28A3A1"/>
</svg>
